**ABCDEFGHIJKLMNOPQRSTUVWXYZabcdefghijklmnopqrstuvwxyz**************************
**PARASOLID !"#$%&'()*+,-./:;<=>?@[\]^_`{|}~0123456789**************************
**PART1;
MC=AMD64;
MC_MODEL=Intel64 Family 6 Model 158 Stepping 10, GenuineIntel;
MC_ID=unknown;
OS=Windows_NT;
OS_RELEASE=unknown;
FRU=Parasolid Version 30.0, build 298, 12-15-2017;
APPL=SOLIDWORKS 2018-2018134;
SITE=;
USER=unknown;
FORMAT=text;
GUISE=transmit;
KEY=BoatAssembly;
FILE=BoatAssembly.x_t;
DATE=Sat Feb  9 14:03:50 2019;
**PART2;
SCH=SCH_3000298_30000;
USFLD_SIZE=0;
**PART3;
**END_OF_HEADER*****************************************************************
T51 : TRANSMIT FILE created by modeller version 300029823 SCH_3000298_30000_1300
6205 0 10 19 CCCCCCCI4 mesh1006 0 I8 polyline1008 0 CCCCCCCCCCZ1 3 2 3 0 0 0 0 0
 0 0 1e3 1e-8 0 0 0 1 0 1 4 81 255 1 2 3 5 1 0 0 0 0 0 70 11 CI9 list_type0 0 1
 uI10 notransmit0 0 1 lCCCDCCDI12 finger_index0 0 1 dI12 finger_block1012 0 CZ3
 0 4 T1 0 0 1 20 1 6 6 11 255 4 1 0 1 7 8 1 0 0 0 0 12 33 CCCCCCI4 mesh1006 0 I8
 polyline1008 0 CCCCCCCDI5 owner1040 0 CCCCCCI13 boundary_mesh1006 0 I17 boundar
y_polyline1008 0 CCCA16 index_map_offset0 0 1 dA9 index_map82 0 A17 node_id_inde
x_map82 0 A20 schema_embedding_map82 0 A5 child12 0 A14 lowest_node_id0 0 1 dZ7
 4018 9 10 0 0 0 0 0 0 1e3 1e-8 4 11 0 1 0 1 1 12 13 14 15 0 0 16 17 18 0 0 0 0
 0 0 100 255 8 2 4 0 0 -698296267768626e-29 349148133884316e-29 1 1 -34914813388
4311e-29 698296267768627e-29 3491481338843135e-30 1 -3491481338843135e-30 190216
4948990035e-30 .25 .0500329125305154 1 3 ?81 1 9 3998 5 7 19 0 0 0 20 70 10 0 4
 T7 0 0 5 20 1 21 21 13 255 12 4 0 7 0 22 0 0 23 0 50 255 13 81 0 22 24 0 25 +-.
25 195737743539783e-31 -.0799159985050642 1956663229840445e-32 1 122464679914735
2e-31 0 -1224646799147352e-31 1 137 255 14 175 0 7 26 0 27 +28 29 0 ?29 255 15 6
2 0 30 31 0 .2499 -.025 -451370225326184e-19 19 8 CCCCCCCA5 owner12 0 Z16 2 0 7
 23 0 32 V0 16 255 17 17 0 ?33 0 34 35 0 0 7 18 255 18 30 0 36 0 37 38 769785112
022097e-22 7 17 255 36 0 39 40 41 18 42 43 44 33 -18 37 34 0 45 18 46 47 7697851
12022097e-22 7 29 38 56 0 18 48 49 -.25 0 .0799159985050642 29 48 55 0 50 0 38 -
.25 195737743539783e-31 -.0799159985050642 29 49 57 0 51 38 52 -.25 -.015 .07991
59985050643 18 51 31 0 41 50 53 49 769785112022097e-22 7 29 52 58 0 54 49 55 -.2
5 -.015 -.0799159985050643 18 54 32 0 56 53 30 52 769785112022097e-22 7 29 55 59
 0 46 52 47 .2499 1105538203352186e-35 -451370225326153e-19 18 46 33 0 57 37 50
 55 769785112022097e-22 7 29 47 60 0 37 55 31 .2499 0 451370225326153e-19 29 31
 61 0 53 47 15 .2499 -.025 451370225326122e-19 18 53 35 0 58 51 54 31 7697851120
22097e-22 7 17 58 0 59 60 61 53 62 63 64 65 -15 255 59 13 0 66 67 0 17 60 0 59 6
6 58 51 68 69 70 0 -17 61 0 59 58 66 30 71 72 73 0 +17 62 0 74 57 65 30 58 63 75
 61 +16 63 23 0 769785112022097e-22 62 76 77 0 0 0 7 133 255 64 170 0 58 78 79 0
 +79 .2499 -.025 -451370225326184e-19 .2499 -.025 451370225326122e-19 0 1 17 65
 0 74 62 80 53 45 76 81 68 +15 74 16 0 80 82 0 17 80 0 74 65 57 37 83 84 85 86 +
17 45 0 87 88 68 37 65 76 89 80 -16 76 22 0 769785112022097e-22 65 84 63 0 0 0 7
 133 81 164 0 65 90 91 0 +91 .2499 0 451370225326153e-19 .2499 -.025 45137022532
6153e-19 0 1 17 68 0 87 45 42 53 60 69 92 0 +15 87 12 0 42 93 0 17 42 0 87 68 88
 51 36 43 94 60 +16 69 27 0 769785112022097e-22 68 43 95 0 0 0 7 133 92 129 0 68
 96 97 0 +97 -.25 -.015 .0799159985050643 .2499 -.025 451370225326123e-19 0 1 13
4 255 96 128 0 7 98 92 99 +100 101 137 97 130 0 7 92 70 102 +103 104 0 ?133 70 1
31 0 60 97 105 0 +105 .2499 -.025 451370225326122e-19 -.25 -.015 .07991599850506
43 0 1 141 255 102 92 102 102 97 124 255 103 76 0 93 0 106 107 +108 109 134 104
 0 0 0 0 0 0 +110 111 136 255 110 1 2 2 2 5 FFF1 112 113 114 135 255 111 2 0 45
 255 4 112 1 0 1 1 127 255 2 113 2 2 128 255 2 114 0 1 14 255 93 6 115 ?67 22 87
 12 103 +0 0 67 22 32 124 106 77 0 67 103 28 116 +117 118 141 107 119 120 121 10
3 126 255 108 FF1 3 2 8 1 1 2 6 FFF9 3 122 123 124 125 126 125 255 109 0 1 0 1 0
 1 0 1 2 BBBBBBBB????0 0 0 0 45 48 122 -.25 0 .0799159985050642 -.21668304335143
75 0 .0807056278088152 -.1500823374935565 0 .0822840993826331 -.0497295709096826
 0 .0793778187759668 .0506281238760386 0 .0654140306987737 .1512288766907285 0 .
04055263577225835 .216775165513461 0 .0136438895911301 .2499 0 451370225326153e-
19 -.25 -.015 .0799159985050643 -.2166830433514375 -.0156663421388669 .080705627
8088152 -.1500823374935565 -.01699836226481985 .0822840993826331 -.0497295709096
826 -.01900537248681045 .0793778187759668 .0506281238760386 -.0210126993968115 .
0654140306987737 .1512288766907285 -.0230240540595973 .04055263577225835 .216775
165513461 -.0243366561559755 .0136438895911301 .2499 -.025 451370225326123e-19 1
27 2 123 2 2 127 6 124 4 1 1 1 1 4 128 2 125 0 1 128 6 126 0 .1976040459856625 .
395011137476934 .593446450075138 .794541852894264 1 137 119 121 0 7 94 44 127 +1
03 128 0 ?141 120 129 121 107 103 141 121 97 107 120 103 137 129 167 0 7 89 75 1
30 +103 131 0 ?133 89 166 0 45 91 129 0 +129 .2499 -.025 451370225326123e-19 .24
99 0 451370225326153e-19 0 1 133 75 168 0 62 129 78 0 +78 .2499 -.025 4513702253
26123e-19 .2499 -.025 -451370225326184e-19 0 1 141 130 89 130 130 129 134 131 0
 0 0 0 0 0 +132 133 136 132 1 2 2 2 5 FFF1 134 135 136 135 133 2 0 45 4 134 1 1
 0 1 127 2 135 2 2 128 2 136 0 1 137 78 169 0 7 75 64 137 +24 138 0 ?141 137 75
 137 137 78 50 24 80 0 82 139 13 140 +.2499 -.0450016767404122 -33881317890172e-
34 -1 0 0 0 0 1 134 138 0 0 0 0 0 0 +141 142 136 141 3 11 2 9 1 FFF1 143 144 145
 135 142 2 0 45 22 143 451370225326123e-19 .0200016767404122 451370225326118e-19
 .0165587587111933 423159586243231e-19 .01058830477963532 317369689682422e-19 .0
0431728606591584 169263834497292e-19 .000669445338791867 660685698858354e-34 -.0
0041670159875859 -1692638344972945e-20 .000997361056242485 -3173696896824355e-20
 .00485014910677309 -423159586243264e-19 .01108017835581124 -451370225326169e-19
 .0167773691894937 -451370225326184e-19 .0200016767404122 127 9 144 4 1 1 1 1 1
 1 1 4 128 9 145 0 .125 .25 .375 .5 .625 .75 .875 1 14 82 10 146 ?0 147 74 12 24
 -0 0 0 147 32 50 139 79 0 147 28 24 148 +-.25 .1346641706444314 183285747526746
5e-32 1 0 0 0 0 -1 141 140 149 150 151 24 137 149 160 0 7 85 152 153 +24 154 0 ?
141 150 155 156 140 24 141 151 91 140 156 24 137 91 165 0 7 81 89 157 +24 158 0
 ?141 156 78 151 150 24 141 157 81 157 157 91 134 158 0 0 0 0 0 0 +159 160 136 1
59 1 2 2 2 5 FFF1 161 162 163 135 160 2 0 45 4 161 451370225326153e-19 .04500167
67404122 451370225326153e-19 .0200016767404122 127 2 162 2 2 128 2 163 0 1 137 1
55 173 0 7 164 26 165 +24 166 0 ?133 164 172 0 57 79 155 0 +155 .2499 -.025 -451
370225326184e-19 .2499 0 -451370225326184e-19 0 1 133 26 174 0 167 155 14 0 +14
 .2499 1105538203352186e-35 -451370225326153e-19 .2499 -.025 -451370225326184e-1
9 0 1 141 165 164 165 165 155 134 166 0 0 0 0 0 0 +168 169 136 168 1 2 2 2 5 FFF
1 170 171 172 135 169 2 0 45 4 170 -451370225326184e-19 .0200016767404122 -45137
0225326184e-19 .0450016767404122 127 2 171 2 2 128 2 172 0 1 17 167 0 173 71 174
 30 57 77 26 62 -15 173 14 0 175 176 0 17 71 0 173 175 167 54 61 72 177 0 -17 17
4 0 173 167 175 46 178 179 180 0 +18 30 36 0 167 54 0 15 769785112022097e-22 7 1
7 57 0 74 80 62 46 167 77 164 83 +16 77 24 0 769785112022097e-22 57 63 0 0 0 0 7
 17 83 0 181 178 86 46 80 84 152 174 -15 181 11 0 33 22 0 17 178 0 181 33 83 50
 174 179 182 0 -17 86 0 181 83 33 37 88 34 0 0 +16 84 21 0 769785112022097e-22 8
0 179 76 0 0 0 7 133 152 161 0 83 149 90 0 +90 .2499 0 451370225326153e-19 .2499
 1105538203352226e-35 -451370225326153e-19 0 1 137 90 162 0 7 152 81 183 +13 184
 0 ?141 183 152 183 183 90 134 184 0 0 0 0 0 0 +185 186 136 185 1 2 2 2 5 FFF1 1
87 188 189 135 186 2 0 45 4 187 .0799611355275969 .4999 .0798708614825316 .4999
 127 2 188 2 2 128 2 189 0 1 16 179 25 0 769785112022097e-22 174 190 84 0 0 0 7
 16 190 20 0 769785112022097e-22 175 72 179 0 0 0 7 17 175 0 173 174 71 50 56 19
0 191 40 +16 72 28 0 769785112022097e-22 61 95 190 0 0 0 7 16 95 19 0 7697851120
22097e-22 66 69 72 0 0 0 7 17 66 0 59 61 60 54 41 95 192 71 +17 41 0 39 36 56 51
 66 95 193 42 -133 192 96 0 66 0 194 0 +194 -.25 -.015 .0799159985050643 -.25 -.
015 -.0799159985050643 0 1 137 194 97 0 7 192 193 195 +106 196 0 ?133 193 98 0 4
1 194 197 0 +197 -.25 -.015 -.0799159985050643 -.25 -.015 .0799159985050643 0 1
 141 195 192 195 195 194 134 196 0 0 0 0 0 0 +198 199 136 198 1 2 2 2 5 FFF1 200
 201 202 135 199 2 0 45 4 200 0 0 1 0 127 2 201 2 2 128 2 202 0 1 137 197 99 0 7
 193 94 203 +139 204 0 ?133 94 120 0 42 197 119 0 +119 -.25 0 .0799159985050642
 -.25 -.015 .0799159985050643 0 1 141 203 193 203 203 197 134 204 0 0 0 0 0 0 +2
05 206 136 205 2 33 2 17 5 FFF1 207 208 209 135 206 2 0 45 66 207 .0799159985050
643 -.1496641706444314 .0753284744297532 -.152113765397577 .0705961903754455 -.1
54279238748131 .0658645033343691 -.1564444389079325 .0610112241147272 -.15831481
97347945 .0561589391497706 -.1601848173908525 .0511969283320884 -.16175534642915
7 .0462360612551303 -.1633255134613945 .04119032176473375 -.1645882880397145 .03
61456724027213 -.1658507897964965 .0310289095848293 -.1668026395806845 .02591317
68340513 -.1677542977458365 .0207509525763622 -.168390462905405 .015589809577537
65 -.1690264948163615 .0103950000735862 -.16934538436386 .00520131962040283 -.16
9664204603237 59961938176118e-30 -.1696642214534975 -.00520022134321168 -.169664
2383001995 -.01039500007358608 -.16934538436386 -.01558871542433755 -.1690265956
974375 -.0207509525763621 -.168390462905405 -.0259120909228274 -.167754465517118
5 -.0310289095848292 -.166802639580685 -.03614459880081745 -.1658510237427675 -.
04119032176473365 -.1645882880397145 -.0462350040140424 -.1633258127844715 -.051
1969283320884 -.161755346429157 -.0561579022235896 -.160185180887159 -.061011224
1147272 -.1583148197347945 -.0658634906477176 -.1564448652937345 -.0705961903754
455 -.154279238748131 -.0753279898563338 -.1521140241446675 -.0799159985050642 -
.1496641706444314 127 17 208 3 2 2 2 2 2 2 2 2 2 2 2 2 2 2 2 3 128 17 209 0 .062
5 .125 .1875 .25 .3125 .375 .4375 .5 .5625 .625 .6875 .75 .8125 .875 .9375 1 15
 39 15 0 56 147 0 17 56 0 39 41 40 54 175 190 210 66 -17 40 0 39 56 36 50 33 17
 0 178 -133 210 147 0 56 211 212 0 +212 -.25 277555756156289e-31 -.0799159985050
643 -.25 -.015 -.0799159985050643 0 1 137 211 146 0 7 191 210 213 +28 214 0 ?137
 212 148 0 7 210 180 215 +139 216 0 ?133 180 152 0 174 212 217 0 +217 -.25 19573
7743539783e-31 -.0799159985050642 .2499 1105538203352186e-35 -451370225326153e-1
9 0 1 141 215 210 215 215 212 134 216 0 0 0 0 0 0 +218 219 136 218 1 2 2 2 5 FFF
1 220 221 222 135 219 2 0 45 4 220 .0799159985050643 -.1346641706444314 .0799159
985050643 -.1496641706444314 127 2 221 2 2 128 2 222 0 1 137 217 153 0 7 180 182
 223 +28 224 0 ?133 182 154 0 178 217 225 0 +225 .2499 1105538203352226e-35 -451
370225326153e-19 -.25 195737743539783e-31 -.0799159985050642 0 1 141 223 180 223
 223 217 124 28 78 0 176 106 139 226 +227 228 134 224 0 0 0 0 0 0 +229 230 136 2
29 1 2 2 2 5 FFF1 231 232 233 135 230 2 0 45 4 231 1 0 1 1 127 2 232 2 2 128 2 2
33 0 1 14 176 8 234 ?147 67 173 12 28 +0 0 147 67 32 141 226 235 236 237 28 126
 227 FF1 3 2 8 1 1 2 6 FFF9 3 238 239 240 241 242 125 228 0 1 0 1 0 1 0 1 2 BBBB
BBBB????0 0 0 0 45 48 238 -.25 -.015 -.0799159985050643 -.2166830433514375 -.015
6663421388669 -.0807056278088152 -.1500823374935565 -.01699836226481985 -.082284
0993826331 -.0497295709096826 -.01900537248681035 -.0793778187759668 .0506281238
760386 -.0210126993968115 -.0654140306987737 .1512288766907285 -.023024054059597
3 -.04055263577225835 .216775165513461 -.0243366561559755 -.0136438895911301 .24
99 -.025 -451370225326184e-19 -.25 195737743539783e-31 -.0799159985050642 -.2166
830433514375 197671777538486e-31 -.0807056278088152 -.1500823374935565 201537917
8593285e-32 -.0822840993826331 -.0497295709096826 194419583374573e-31 -.07937781
87759668 .0506281238760386 16021816662916e-30 -.0654140306987737 .15122887669072
85 993253111909693e-32 -.04055263577225835 .216775165513461 3341789143139475e-33
 -.0136438895911301 .2499 1105538203352186e-35 -451370225326153e-19 127 2 239 2
 2 127 6 240 4 1 1 1 1 4 128 2 241 0 1 128 6 242 0 .1976040459856625 .3950111374
76934 .593446450075138 .794541852894264 1 137 235 141 0 7 177 191 243 +28 244 0
 ?141 236 14 245 226 28 141 237 211 226 245 28 141 245 217 237 236 28 133 177 14
0 0 71 246 235 0 +235 .2499 -.025 -451370225326184e-19 -.25 -.015 -.079915998505
0643 0 1 133 191 145 0 175 235 211 0 +211 -.25 -.015 -.0799159985050643 -.25 195
737743539783e-31 -.0799159985050642 0 1 141 243 177 243 243 235 134 244 0 0 0 0
 0 0 +247 248 136 247 1 2 2 2 5 FFF1 249 250 251 135 248 2 0 45 4 249 1966123892
075545e-36 1 1966123892075545e-36 0 127 2 250 2 2 128 2 251 0 1 137 246 139 0 7
 73 177 252 +106 253 0 ?133 73 138 0 61 105 246 0 +246 -.25 -.015 -.079915998505
0643 .2499 -.025 -451370225326184e-19 0 1 141 252 73 252 252 246 134 253 0 0 0 0
 0 0 +254 255 136 254 1 2 2 2 5 FFF1 256 257 258 135 255 2 0 45 4 256 1 0 1 1 12
7 2 257 2 2 128 2 258 0 1 137 105 132 0 7 70 73 259 +106 260 0 ?141 259 70 259 2
59 105 134 260 0 0 0 0 0 0 +261 262 136 261 1 2 2 2 5 FFF1 263 264 265 135 262 2
 0 45 4 263 0 1 0 0 127 2 264 2 2 128 2 265 0 1 81 1 234 3995 266 176 267 0 268
 269 270 14 147 9 269 ?82 176 39 12 139 -0 0 82 176 32 14 67 7 268 ?176 93 59 12
 106 +0 0 176 93 32 13 32 3 0 0 0 0 0 0 16 22 14 22 5 271 ?93 0 181 12 13 +0 0 9
3 0 32 81 1 271 3992 266 22 272 0 0 115 273 80 255 1 266 0 274 8001 0 0 0 0 3 5
 0 0 0 FFFFTFTFFFFFFF2 81 1 272 3990 275 22 0 271 276 0 277 81 1 115 3993 266 93
 278 0 271 268 279 83 255 3 273 .843137254901961 .815686274509804 .7529411764705
88 81 1 278 3980 275 93 0 115 0 280 281 81 1 268 3994 266 67 276 0 115 234 282 8
3 3 279 .843137254901961 .815686274509804 .752941176470588 81 1 276 3988 275 67
 0 268 283 272 284 83 3 282 .843137254901961 .815686274509804 .752941176470588 8
0 1 275 285 286 9000 1 1 1 1 1 1 1 1 0 FFFFTFTFFFFFFF1 81 1 283 3986 275 147 0 2
69 267 276 287 82 255 1 284 -1214578245 81 1 269 3996 266 147 283 0 234 146 288
 81 1 267 3984 275 176 0 234 280 283 289 82 1 287 -1214447173 81 1 280 3982 275
 82 0 146 278 267 290 82 1 289 -1214512709 81 1 146 3997 266 82 280 0 269 0 291
 82 1 290 -1214381637 83 3 291 .843137254901961 .815686274509804 .75294117647058
8 83 3 288 .843137254901961 .815686274509804 .752941176470588 79 255 14 286 SWEn
tUnchanged82 1 281 -1214643781 82 1 277 -1214709317 79 15 274 SDL/TYSA_COLOUR83
 3 270 .843137254901961 .815686274509804 .752941176470588 137 225 155 0 7 182 85
 292 +13 293 0 ?133 85 159 0 80 225 149 0 +149 .2499 0 -451370225326153e-19 .249
9 0 451370225326153e-19 0 1 141 292 182 292 292 225 134 293 0 0 0 0 0 0 +294 295
 136 294 2 85 2 43 5 FFF1 296 297 298 135 295 2 0 45 170 296 .0798708614825316 .
4999 .0788368217702545 .497381210563329 .0783197361742819 .496121277884544 .0774
58360127581 .494022445818028 .0767694703568369 .492342382420184 .075047949301770
7 .488143939307708 .0736749551575804 .484783378049133 .0720278077154461 .4807517
95027004 .0705941918112003 .477221600095611 .0689854655186176 .473260206121636 .
0675340562441346 .469655661768385 .0659540590244249 .465731771962399 .0645014243
828217 .462084176276219 .0629476258236467 .458182555896724 .0615031721536996 .45
4505756827878 .0599757962972997 .450617882648574 .0585461754832066 .446919016632
1275 .0570467317623937 .4430394974142945 .0556373102977807 .4393225688977315 .05
41679886402469 .43544767149762 .0527834525238603 .431715026833456 .0513468368339
969 .427841978073112 .0499914780878835 .424095003648066 .0485903961607095 .42022
162461571 .0472682629162884 .4164611125503255 .0459057015994678 .412585611882483
5 .04462068293551325 .408811966749001 .04329973723234605 .4049328166135375 .0420
5561407199615 .401146179452856 .04079874169505735 .397320738531547 .039579023402
55155 .393462597875338 .0371671368866341 .385833461309626 .0348900323323018 .378
043906564002 .0326510581499001 .3703847887888985 .0305400927275074 .362562467450
8825 .02846612264747405 .354877234789391 .0265133461875047 .347025432273818 .024
59647479064825 .339317998287184 .02279393431163 .3314399527706475 .0210262596214
9505 .3237142890036425 .01936599869921955 .3158131806792095 .01773962301431915 .
3080733307012865 .01621368094960965 .300152267737343 .0147020953146648 .29230572
8037902 .01332405048973026 .2844635242416805 .010558316928435 .2687242348939935
 .00833246318906836 .2530130336600905 .00609596909845962 .2372267274466435 .0044
0597796424995 .2214782253862895 .003557972611549365 .2135759270997125 .002847725
10193808 .205684084774569 .00249252643160958 .201737331195852 .00217081061469953
5 .1977811855123375 .001851733006890685 .1938574819376635 .001561359176274255 .1
898747901111415 .000993584378795981 .1820873388782885 .000534191932106784 .17405
3208353741 892820454622643e-19 .1662723575218985 -.000256040599925525 .158222793
046183 -.000589367156811324 .1504528606454065 -.000831793777553297 .142387009456
2922 -.001064839479381396 .134633273726053 -.001215522958507214 .126549322851892
 -.001359622980470144 .1188185649395322 -.001429683500517948 .1107131985008068 -
.001496261276696026 .1030107539253086 -.001496721785987282 .0948820755807999 -.0
01497156507793232 .0872085849541753 -.00143850475395499 .0790577089065845 -.0013
83693836553662 .0714405966370166 -.00127597684975965 .0632391717291411 -.0011770
66426531614 .0557082665965813 -.001030000247833882 .0474252981491154 -.000961950
330604873 .0435926336830111 -.000882238114732273 .0395197458645859 -.00080775592
8638483 .0357140859025555 -.000721437122610261 .03161492226715295 -.000642186126
937678 .02785139940952345 -.000550205043271981 .0237106816193971 -.0004682803818
23702 .02002267437279975 -.000371149648521432 .0158068781838993 -.00029022925411
8581 .0122946645031251 -.0001868787101627635 .00790336622323995 -.00012488396115
53186 .00526924912759424 0 0 127 43 297 3 2 2 2 2 2 2 2 2 2 2 2 2 2 2 2 2 2 2 2
 2 2 2 2 2 2 2 2 2 2 2 2 2 2 2 2 2 2 2 2 2 2 3 128 43 298 0 .0078125 .015625 .03
125 .046875 .0625 .078125 .09375 .109375 .125 .140625 .15625 .171875 .1875 .2031
25 .21875 .25 .28125 .3125 .34375 .375 .40625 .4375 .5 .5625 .59375 .609375 .625
 .65625 .6875 .71875 .75 .78125 .8125 .84375 .875 .90625 .921875 .9375 .953125 .
96875 .984375 1 141 213 191 213 213 211 134 214 0 0 0 0 0 0 +299 300 136 299 1 2
 2 2 5 FFF1 301 302 303 135 300 2 0 45 4 301 0 0 1 0 127 2 302 2 2 128 2 303 0 1
 18 50 29 0 175 46 51 48 769785112022097e-22 7 17 33 0 181 86 178 18 40 17 0 88
 +17 88 0 87 42 45 18 86 34 0 0 -16 34 26 0 ?86 17 43 98 0 0 7 16 43 18 0 769785
112022097e-22 42 34 69 0 0 0 7 133 98 127 0 34 304 96 0 +96 -.25 0 .079915998505
0642 .2499 0 451370225326153e-19 0 1 30 255 304 126 0 7 35 98 305 +-.25 97868871
7698916e-32 0 0 -1224646799147352e-31 1 133 35 125 0 17 306 304 0 +304 -.25 1957
37743539783e-31 -.0799159985050642 -.25 0 .0799159985050642 -.0799159985050642 .
0799159985050642 141 305 35 305 305 304 137 306 123 0 7 44 35 307 +139 308 0 ?13
3 44 122 0 36 119 306 0 +306 -.25 -.015 .0799159985050643 -.25 0 .07991599850506
43 0 1 141 307 44 307 307 306 134 308 0 0 0 0 0 0 +309 310 136 309 1 2 2 2 5 FFF
1 311 312 313 135 310 2 0 45 4 311 -.0799159985050642 -.1496641706444314 -.07991
59985050642 -.1346641706444314 127 2 312 2 2 128 2 313 0 1 137 79 171 0 7 64 164
 314 +106 315 0 ?141 314 64 314 314 79 134 315 0 0 0 0 0 0 +316 317 136 316 1 2
 2 2 5 FFF1 318 319 320 135 317 2 0 45 4 318 1 1 0 1 127 2 319 2 2 128 2 320 0 1
 141 153 85 153 153 149 134 154 0 0 0 0 0 0 +321 322 136 321 1 2 2 2 5 FFF1 323
 324 325 135 322 2 0 45 4 323 -451370225326153e-19 .0450016767404122 45137022532
6153e-19 .0450016767404122 127 2 324 2 2 128 2 325 0 1 141 148 197 326 327 139 1
41 326 212 327 148 139 141 327 306 148 326 139 141 127 94 127 127 119 134 128 0
 0 0 0 0 0 +328 329 136 328 1 2 2 2 5 FFF1 330 331 332 135 329 2 0 45 4 330 0 0
 1 0 127 2 331 2 2 128 2 332 0 1 141 116 194 333 334 106 126 117 FF3 3 11 8 1 1
 9 6 FFF2 3 335 336 337 338 339 125 118 0 1 0 1 0 1 0 1 2 BBBBBBBB????0 0 0 0 45
 264 335 -.25 -.015 .0799159985050643 -.2166830433514375 -.0156663421388669 .080
7056278088152 -.1500823374935565 -.01699836226481985 .0822840993826331 -.0497295
709096826 -.01900537248681045 .0793778187759668 .0506281238760386 -.021012699396
8115 .0654140306987737 .1512288766907285 -.0230240540595973 .04055263577225835 .
216775165513461 -.0243366561559755 .0136438895911301 .2499 -.025 451370225326122
e-19 -.25 -.0182662463812107 .0737990749239456 -.2166830433514375 -.019558050442
3138 .0747698602517303 -.1500823374935565 -.02214037100679605 .0767104633130766
 -.0497295709096826 -.0239997499329633 .0741323365726557 .0506281238760386 -.025
37718982802925 .0609797060997187 .1512288766907285 -.0263644728153136 .039053322
1702121 .216775165513461 -.0277451642042811 .0131405557560066 .2499 -.0284429180
292189 451370225326118e-19 -.25 -.02404785801585705 .0611643088173451 -.21668304
33514375 -.02648718279307165 .0623201142491506 -.1500823374935565 -.031363401041
11865 .0646305731066207 -.0497295709096827 -.0330091627570105 .0626563100398999
 .0506281238760387 -.03317509617819785 .0513646231335876 .151228876690728 -.0327
7154378204355 .03476876825942995 .216775165513461 -.0338621946269037 .0117003162
548548 .2499 -.0344133719607769 423159586243231e-19 -.25 -.030337021914862 .0412
93651441737 -.216683043351438 -.03408318839279465 .0423069020633558 -.1500823374
93557 -.0415717874963449 .0443323933866655 -.0497295709096824 -.0430586292076463
5 .0431140829896764 .0506281238760383 -.04175553672798705 .03521877001083105 .15
1228876690729 -.0404982464213191 .02511969302005965 .216775165513461 -.040621900
27841775 .00845400240921467 .2499 -.0406843906744964 3173696896824215e-20 -.25 -
.0341487586963945 .02080301600410895 -.2166830433514375 -.0387105013403309 .0213
837072794526 -.1500823374935565 -.0478294398806333 .0225445110476764 -.049729570
9096828 -.0492518129087472 .0219667072503973 .0506281238760389 -.046990126173069
5 .01790450076390355 .1512288766907285 -.0455102303927877 .01316246031227378 .21
6775165513461 -.04472769686607465 .00443000714127835 .2499 -.04433223140162035 1
69263834497292e-19 -.25 -.0354256968654015 -555111512312578e-31 -.21668304335143
75 -.04026440577938565 -674827923700941e-31 -.150082337493556 -.0499370008039396
 -914141423590538e-31 -.0497295709096826 -.0513456776972363 465879741181488e-31
 .0506281238760385 -.0487416971339968 936980142466266e-31 .151228876690728 -.047
2738798453917 -102325070583381e-30 .2167751655134605 -.0460412878411782 -3430986
13176607e-31 .2499 -.0454183783391708 626804380968182e-34 -.25 -.034148758696394
55 -.020803016004109 -.2166830433514375 -.03871000850011345 -.0213837072794527 -
.1500823374935565 -.047827961851201 -.0225445110476766 -.0497295709096826 -.0492
577309669901 -.02196670725039765 .0506281238760384 -.0469676771793439 -.01790450
07639035 .1512288766907295 -.0455960581045441 -.01316246031227402 .2167751655134
615 -.0445386787526314 -.00443000714127843 .2499 -.04400431568416975 -1692638344
972945e-20 -.25 -.0303370219148619 -.04129365144173705 -.216683043351438 -.03408
23875274409 -.04230690206335585 -.1500823374935565 -.04156938569851665 -.0443323
933866655 -.0497295709096828 -.0430682460522913 -.04311408298967625 .05062812387
60388 -.04171905711318285 -.03521877001083095 .151228876690727 -.040637716452922
9 -.0251196930200597 .2167751655134605 -.0403147458440724 -.00845400240921469 .2
499 -.04015152763363915 -3173696896824355e-20 -.25 -.02404785801585715 -.0611643
088173451 -.2166830433514375 -.02648644353274545 -.0623201142491507 -.1500823374
935565 -.0313611839969702 -.0646305731066209 -.0497295709096825 -.03301803984437
465 -.0626563100399001 .0506281238760384 -.03314142268760945 -.0513646231335875
 .1512288766907295 -.0329002853496783 -.03476876825943 .216775165513461 -.033578
6674567389 -.01170031625485482 .2499 -.033921498384601 -423159586243264e-19 -.25
 -.0182662463812107 -.0737990749239456 -.2166830433514375 -.0195577218821688 -.0
747698602517303 -.1500823374935565 -.0221393856538411 -.0767104633130765 -.04972
95709096826 -.02400369530512515 -.0741323365726559 .0506281238760386 -.025362223
8322121 -.0609797060997186 .1512288766907285 -.02642169128981785 -.0390533221702
1215 .216775165513461 -.0276191521286523 -.01314055575600662 .2499 -.02822430755
09185 -451370225326169e-19 -.25 -.015 -.0799159985050643 -.2166830433514375 -.01
56663421388669 -.0807056278088152 -.1500823374935565 -.01699836226481985 -.08228
40993826331 -.0497295709096826 -.01900537248681035 -.0793778187759669 .050628123
8760386 -.02101269939681145 -.0654140306987737 .1512288766907285 -.0230240540595
973 -.04055263577225835 .216775165513461 -.0243366561559755 -.01364388959113012
 .2499 -.025 -451370225326184e-19 127 9 336 4 1 1 1 1 1 1 1 4 127 6 337 4 1 1 1
 1 4 128 9 338 0 .125 .25 .375 .5 .625 .75 .875 1 128 6 339 0 .1976040459856625
 .395011137476934 .593446450075138 .794541852894264 1 141 333 79 340 116 106 141
 334 105 116 340 106 141 340 246 334 333 106 141 99 98 99 99 96 136 100 3 8 3 6
 6 FFF1 341 342 343 135 101 2 0 45 24 341 -.25 0 .0799159985050642 -.21668304335
14375 0 .0807056278088152 -.1500823374935565 0 .0822840993826331 -.0497295709096
826 0 .0793778187759668 .0506281238760386 0 .0654140306987737 .1512288766907285
 0 .04055263577225835 .216775165513461 0 .0136438895911301 .2499 0 4513702253261
53e-19 127 6 342 4 1 1 1 1 4 128 6 343 0 .1976040459856625 .395011137476934 .593
446450075138 .794541852894264 1 19 23 1 0 7 0 16 12 S0 141 27 26 27 27 14 134 29
 0 0 0 0 0 0 +344 345 136 344 1 2 2 2 5 FFF1 346 347 348 135 345 2 0 45 4 346 1
 1 0 1 127 2 347 2 2 128 2 348 0 1 141 25 225 349 349 13 141 349 90 25 25 13 74
 4 CI16 index_map_offset0 0 1 dCCZ20 21 5 0 0 272 350 19 146 9 0 0 0 0 0 0 0 0 0
 0 0 0 0 0 0 81 2 350 217 351 7 0 19 0 0 352 0 81 1 19 1421 353 7 350 9 0 0 354
 80 1 353 355 356 9000 0 0 0 0 3 6 0 0 0 FFTTTTTTFTTFTT1 82 1 354 2 79 64 356 AP
ICUSTUMTRACKINGIDENTIFIER_C9A5DBDA-4E3F-4DE6-B940-06444EB62C9080 2 351 357 358 8
004 0 0 0 0 3 5 0 0 0 FFTFFFFFFFFFFF2 3 83 1 352 160.18463374 79 16 358 SDL/TYSA
_DENSITY80 1 5 359 360 8017 0 0 0 0 0 0 0 0 0 TTTTTTTTTTTTTF3 84 255 5 20 Boat37
9 13 360 SDL/TYSA_NAME74 20 6 1 0 0 2 0 0 0 0 0 0 0 0 0 0 0 0 0 0 0 0 0 0 0 1 0
 
